<svg width="225" height="19" viewBox="0 0 225 19" fill="none" xmlns="http://www.w3.org/2000/svg">
<path d="M11.4883 2.61328H2.66406V7.53516H10.2461V9.59766H2.66406V18H0.34375V0.550781H11.4883V2.61328ZM27.1562 2.55469C27.8672 3.33594 28.4102 4.29297 28.7852 5.42578C29.168 6.55859 29.3594 7.84375 29.3594 9.28125C29.3594 10.7188 29.1641 12.0078 28.7734 13.1484C28.3906 14.2812 27.8516 15.2266 27.1562 15.9844C26.4375 16.7734 25.5859 17.3672 24.6016 17.7656C23.625 18.1641 22.5078 18.3633 21.25 18.3633C20.0234 18.3633 18.9062 18.1602 17.8984 17.7539C16.8984 17.3477 16.0469 16.7578 15.3438 15.9844C14.6406 15.2109 14.0977 14.2617 13.7148 13.1367C13.3398 12.0117 13.1523 10.7266 13.1523 9.28125C13.1523 7.85938 13.3398 6.58594 13.7148 5.46094C14.0898 4.32812 14.6367 3.35938 15.3555 2.55469C16.043 1.78906 16.8945 1.20313 17.9102 0.796875C18.9336 0.390625 20.0469 0.1875 21.25 0.1875C22.5 0.1875 23.6211 0.394531 24.6133 0.808594C25.6133 1.21484 26.4609 1.79687 27.1562 2.55469ZM26.9453 9.28125C26.9453 7.01562 26.4375 5.26953 25.4219 4.04297C24.4062 2.80859 23.0195 2.19141 21.2617 2.19141C19.4883 2.19141 18.0938 2.80859 17.0781 4.04297C16.0703 5.26953 15.5664 7.01562 15.5664 9.28125C15.5664 11.5703 16.082 13.3242 17.1133 14.543C18.1445 15.7539 19.5273 16.3594 21.2617 16.3594C22.9961 16.3594 24.375 15.7539 25.3984 14.543C26.4297 13.3242 26.9453 11.5703 26.9453 9.28125ZM46.0469 2.55469C46.7578 3.33594 47.3008 4.29297 47.6758 5.42578C48.0586 6.55859 48.25 7.84375 48.25 9.28125C48.25 10.7188 48.0547 12.0078 47.6641 13.1484C47.2812 14.2812 46.7422 15.2266 46.0469 15.9844C45.3281 16.7734 44.4766 17.3672 43.4922 17.7656C42.5156 18.1641 41.3984 18.3633 40.1406 18.3633C38.9141 18.3633 37.7969 18.1602 36.7891 17.7539C35.7891 17.3477 34.9375 16.7578 34.2344 15.9844C33.5312 15.2109 32.9883 14.2617 32.6055 13.1367C32.2305 12.0117 32.043 10.7266 32.043 9.28125C32.043 7.85938 32.2305 6.58594 32.6055 5.46094C32.9805 4.32812 33.5273 3.35938 34.2461 2.55469C34.9336 1.78906 35.7852 1.20313 36.8008 0.796875C37.8242 0.390625 38.9375 0.1875 40.1406 0.1875C41.3906 0.1875 42.5117 0.394531 43.5039 0.808594C44.5039 1.21484 45.3516 1.79687 46.0469 2.55469ZM45.8359 9.28125C45.8359 7.01562 45.3281 5.26953 44.3125 4.04297C43.2969 2.80859 41.9102 2.19141 40.1523 2.19141C38.3789 2.19141 36.9844 2.80859 35.9688 4.04297C34.9609 5.26953 34.457 7.01562 34.457 9.28125C34.457 11.5703 34.9727 13.3242 36.0039 14.543C37.0352 15.7539 38.418 16.3594 40.1523 16.3594C41.8867 16.3594 43.2656 15.7539 44.2891 14.543C45.3203 13.3242 45.8359 11.5703 45.8359 9.28125ZM66.6719 9.29297C66.6719 10.8789 66.3242 12.3164 65.6289 13.6055C64.9414 14.8945 64.0234 15.8945 62.875 16.6055C62.0781 17.0977 61.1875 17.4531 60.2031 17.6719C59.2266 17.8906 57.9375 18 56.3359 18H51.9297V0.550781H56.2891C57.9922 0.550781 59.3438 0.675781 60.3438 0.925781C61.3516 1.16797 62.2031 1.50391 62.8984 1.93359C64.0859 2.67578 65.0117 3.66406 65.6758 4.89844C66.3398 6.13281 66.6719 7.59766 66.6719 9.29297ZM64.2461 9.25781C64.2461 7.89062 64.0078 6.73828 63.5312 5.80078C63.0547 4.86328 62.3438 4.125 61.3984 3.58594C60.7109 3.19531 59.9805 2.92578 59.207 2.77734C58.4336 2.62109 57.5078 2.54297 56.4297 2.54297H54.25V16.0078H56.4297C57.5469 16.0078 58.5195 15.9258 59.3477 15.7617C60.1836 15.5977 60.9492 15.293 61.6445 14.8477C62.5117 14.293 63.1602 13.5625 63.5898 12.6562C64.0273 11.75 64.2461 10.6172 64.2461 9.25781ZM90.0039 2.61328H81.1797V7.53516H88.7617V9.59766H81.1797V18H78.8594V0.550781H90.0039V2.61328ZM105.672 2.55469C106.383 3.33594 106.926 4.29297 107.301 5.42578C107.684 6.55859 107.875 7.84375 107.875 9.28125C107.875 10.7188 107.68 12.0078 107.289 13.1484C106.906 14.2812 106.367 15.2266 105.672 15.9844C104.953 16.7734 104.102 17.3672 103.117 17.7656C102.141 18.1641 101.023 18.3633 99.7656 18.3633C98.5391 18.3633 97.4219 18.1602 96.4141 17.7539C95.4141 17.3477 94.5625 16.7578 93.8594 15.9844C93.1562 15.2109 92.6133 14.2617 92.2305 13.1367C91.8555 12.0117 91.668 10.7266 91.668 9.28125C91.668 7.85938 91.8555 6.58594 92.2305 5.46094C92.6055 4.32812 93.1523 3.35938 93.8711 2.55469C94.5586 1.78906 95.4102 1.20313 96.4258 0.796875C97.4492 0.390625 98.5625 0.1875 99.7656 0.1875C101.016 0.1875 102.137 0.394531 103.129 0.808594C104.129 1.21484 104.977 1.79687 105.672 2.55469ZM105.461 9.28125C105.461 7.01562 104.953 5.26953 103.938 4.04297C102.922 2.80859 101.535 2.19141 99.7773 2.19141C98.0039 2.19141 96.6094 2.80859 95.5938 4.04297C94.5859 5.26953 94.082 7.01562 94.082 9.28125C94.082 11.5703 94.5977 13.3242 95.6289 14.543C96.6602 15.7539 98.043 16.3594 99.7773 16.3594C101.512 16.3594 102.891 15.7539 103.914 14.543C104.945 13.3242 105.461 11.5703 105.461 9.28125ZM125.992 18H122.98L117.145 11.0625H113.875V18H111.555V0.550781H116.441C117.496 0.550781 118.375 0.621094 119.078 0.761719C119.781 0.894531 120.414 1.13672 120.977 1.48828C121.609 1.88672 122.102 2.39062 122.453 3C122.812 3.60156 122.992 4.36719 122.992 5.29688C122.992 6.55469 122.676 7.60938 122.043 8.46094C121.41 9.30469 120.539 9.94141 119.43 10.3711L125.992 18ZM120.566 5.46094C120.566 4.96094 120.477 4.51953 120.297 4.13672C120.125 3.74609 119.836 3.41797 119.43 3.15234C119.094 2.92578 118.695 2.76953 118.234 2.68359C117.773 2.58984 117.23 2.54297 116.605 2.54297H113.875V9.12891H116.219C116.953 9.12891 117.594 9.06641 118.141 8.94141C118.688 8.80859 119.152 8.56641 119.535 8.21484C119.887 7.88672 120.145 7.51172 120.309 7.08984C120.48 6.66016 120.566 6.11719 120.566 5.46094ZM149.125 2.61328H142.891V18H140.57V2.61328H134.336V0.550781H149.125V2.61328ZM157.621 18H150.73V16.2188H153.016V2.33203H150.73V0.550781H157.621V2.33203H155.336V16.2188H157.621V18ZM176.125 16.7109C175.172 17.1484 174.129 17.5312 172.996 17.8594C171.871 18.1797 170.781 18.3398 169.727 18.3398C168.367 18.3398 167.121 18.1523 165.988 17.7773C164.855 17.4023 163.891 16.8398 163.094 16.0898C162.289 15.332 161.668 14.3867 161.23 13.2539C160.793 12.1133 160.574 10.7812 160.574 9.25781C160.574 6.46875 161.387 4.26953 163.012 2.66016C164.645 1.04297 166.883 0.234375 169.727 0.234375C170.719 0.234375 171.73 0.355469 172.762 0.597656C173.801 0.832031 174.918 1.23437 176.113 1.80469V4.55859H175.902C175.66 4.37109 175.309 4.125 174.848 3.82031C174.387 3.51562 173.934 3.26172 173.488 3.05859C172.949 2.81641 172.336 2.61719 171.648 2.46094C170.969 2.29688 170.195 2.21484 169.328 2.21484C167.375 2.21484 165.828 2.84375 164.688 4.10156C163.555 5.35156 162.988 7.04688 162.988 9.1875C162.988 11.4453 163.582 13.2031 164.77 14.4609C165.957 15.7109 167.574 16.3359 169.621 16.3359C170.371 16.3359 171.117 16.2617 171.859 16.1133C172.609 15.9648 173.266 15.7734 173.828 15.5391V11.2617H169.152V9.22266H176.125V16.7109ZM191.676 18H180.18V0.550781H191.676V2.61328H182.5V7.39453H191.676V9.45703H182.5V15.9375H191.676V18ZM209.805 18H206.793L200.957 11.0625H197.688V18H195.367V0.550781H200.254C201.309 0.550781 202.188 0.621094 202.891 0.761719C203.594 0.894531 204.227 1.13672 204.789 1.48828C205.422 1.88672 205.914 2.39062 206.266 3C206.625 3.60156 206.805 4.36719 206.805 5.29688C206.805 6.55469 206.488 7.60938 205.855 8.46094C205.223 9.30469 204.352 9.94141 203.242 10.3711L209.805 18ZM204.379 5.46094C204.379 4.96094 204.289 4.51953 204.109 4.13672C203.938 3.74609 203.648 3.41797 203.242 3.15234C202.906 2.92578 202.508 2.76953 202.047 2.68359C201.586 2.58984 201.043 2.54297 200.418 2.54297H197.688V9.12891H200.031C200.766 9.12891 201.406 9.06641 201.953 8.94141C202.5 8.80859 202.965 8.56641 203.348 8.21484C203.699 7.88672 203.957 7.51172 204.121 7.08984C204.293 6.66016 204.379 6.11719 204.379 5.46094ZM224.734 13.0195C224.734 13.6992 224.574 14.3711 224.254 15.0352C223.941 15.6992 223.5 16.2617 222.93 16.7227C222.305 17.2227 221.574 17.6133 220.738 17.8945C219.91 18.1758 218.91 18.3164 217.738 18.3164C216.48 18.3164 215.348 18.1992 214.34 17.9648C213.34 17.7305 212.32 17.3828 211.281 16.9219V14.0156H211.445C212.328 14.75 213.348 15.3164 214.504 15.7148C215.66 16.1133 216.746 16.3125 217.762 16.3125C219.199 16.3125 220.316 16.043 221.113 15.5039C221.918 14.9648 222.32 14.2461 222.32 13.3477C222.32 12.5742 222.129 12.0039 221.746 11.6367C221.371 11.2695 220.797 10.9844 220.023 10.7812C219.438 10.625 218.801 10.4961 218.113 10.3945C217.434 10.293 216.711 10.1641 215.945 10.0078C214.398 9.67969 213.25 9.12109 212.5 8.33203C211.758 7.53516 211.387 6.5 211.387 5.22656C211.387 3.76562 212.004 2.57031 213.238 1.64062C214.473 0.703125 216.039 0.234375 217.938 0.234375C219.164 0.234375 220.289 0.351562 221.312 0.585938C222.336 0.820312 223.242 1.10938 224.031 1.45312V4.19531H223.867C223.203 3.63281 222.328 3.16797 221.242 2.80078C220.164 2.42578 219.059 2.23828 217.926 2.23828C216.684 2.23828 215.684 2.49609 214.926 3.01172C214.176 3.52734 213.801 4.19141 213.801 5.00391C213.801 5.73047 213.988 6.30078 214.363 6.71484C214.738 7.12891 215.398 7.44531 216.344 7.66406C216.844 7.77344 217.555 7.90625 218.477 8.0625C219.398 8.21875 220.18 8.37891 220.82 8.54297C222.117 8.88672 223.094 9.40625 223.75 10.1016C224.406 10.7969 224.734 11.7695 224.734 13.0195Z" fill="white"/>
</svg>
